<?xml version="1.0" standalone="no"?>
<!DOCTYPE svg PUBLIC "-//W3C//DTD SVG 20010904//EN"
 "http://www.w3.org/TR/2001/REC-SVG-20010904/DTD/svg10.dtd">
<svg version="1.0" xmlns="http://www.w3.org/2000/svg"
 width="268.000000pt" height="78.000000pt" viewBox="0 0 268.000000 78.000000"
 preserveAspectRatio="xMidYMid meet">

<g transform="translate(0.000000,78.000000) scale(0.100000,-0.100000)"
fill="#000000" stroke="none">
<path d="M1200 583 c-28 -10 -60 -47 -60 -69 0 -12 18 -46 40 -75 22 -30 40
-61 40 -69 0 -37 -55 -55 -67 -23 -4 10 2 23 16 34 26 21 20 39 -14 39 -24 0
-55 -23 -55 -41 0 -5 -7 -9 -15 -9 -9 0 -18 -7 -21 -15 -10 -25 -35 -18 -29 8
14 63 25 113 25 120 0 4 -28 7 -63 7 -53 0 -67 -4 -84 -22 -32 -35 -43 -63
-43 -106 0 -60 42 -89 85 -58 16 11 21 11 33 0 22 -22 42 -16 78 22 22 22 34
30 34 20 0 -28 41 -56 82 -56 78 0 128 82 84 142 -66 90 -66 90 -55 109 5 11
17 19 25 19 12 0 15 -8 12 -31 -6 -36 15 -50 39 -26 41 40 -27 102 -87 80z
m68 -19 c14 -10 22 -24 20 -37 -5 -34 -26 -31 -30 5 -3 38 -27 48 -52 23 -24
-24 -20 -38 24 -91 67 -82 51 -149 -39 -161 -31 -4 -46 -1 -61 12 -36 32 -21
95 22 95 22 0 24 -16 3 -24 -21 -8 -19 -53 3 -65 26 -14 66 8 70 39 2 17 -11
43 -38 79 -44 59 -50 89 -22 113 35 31 68 35 100 12z m-222 -102 c-15 -50 -26
-115 -20 -124 3 -5 15 -8 25 -5 28 7 12 -12 -19 -24 -22 -9 -30 -7 -43 10 -15
18 -15 26 -3 73 15 58 13 78 -10 78 -24 0 -47 -43 -49 -92 -2 -39 0 -43 21
-42 28 1 28 -2 -2 -21 -19 -13 -29 -14 -45 -5 -39 20 -20 133 26 159 10 5 42
10 71 10 45 0 52 -3 48 -17z m-56 -9 c-1 -34 -29 -108 -41 -108 -19 0 -16 58
5 90 16 24 36 34 36 18z"/>
<path d="M125 568 c-59 -32 -83 -86 -53 -116 19 -19 28 -14 28 16 0 15 7 38
16 50 18 26 7 30 -12 5 -7 -10 -14 -31 -14 -46 0 -16 -4 -26 -10 -22 -18 11
-10 56 15 80 49 50 51 28 15 -136 -23 -104 -23 -99 -9 -99 5 0 8 3 6 8 -9 13
40 214 54 223 26 16 31 9 24 -31 -5 -31 -4 -40 8 -40 39 0 64 86 29 98 -11 3
-11 0 -1 -16 10 -16 10 -26 1 -46 -18 -41 -33 -32 -26 15 7 42 7 42 -20 35
-17 -4 -25 -3 -22 3 3 5 2 11 -4 13 -5 1 12 3 38 3 75 0 106 -41 64 -83 -18
-18 -18 -19 6 -41 20 -18 23 -28 18 -54 -9 -49 -38 -82 -71 -82 -16 0 -30 6
-33 14 -3 9 0 12 10 9 22 -9 37 4 48 40 5 20 5 30 -1 27 -5 -4 -9 -14 -9 -24
0 -26 -20 -42 -40 -31 -15 8 -16 15 -7 55 11 47 28 57 47 28 7 -11 10 -12 7
-4 -5 22 -34 38 -46 26 -17 -17 -40 -141 -27 -143 6 -1 25 -4 43 -8 26 -5 36
-1 56 20 36 39 44 92 18 127 -18 24 -18 29 -6 39 21 17 19 64 -3 83 -22 20
-106 23 -137 5z"/>
<path d="M1379 562 c-25 -3 -27 -9 -53 -129 -14 -69 -25 -128 -22 -130 3 -4
17 53 47 195 8 40 15 52 29 52 16 0 18 -7 15 -49 -1 -27 -5 -54 -8 -58 -9 -14
-36 -137 -31 -142 5 -5 9 9 26 83 15 69 45 95 34 30 -3 -22 -9 -49 -12 -61 -8
-30 29 -66 59 -57 12 3 30 13 40 22 9 8 17 11 17 5 0 -5 11 -15 25 -21 38 -17
87 6 108 51 9 19 17 39 17 45 0 5 7 12 15 16 20 7 19 -10 -4 -119 -11 -49 -19
-90 -17 -92 1 -1 15 1 31 6 23 6 32 16 41 47 9 33 15 39 35 36 l24 -3 -25 14
c-29 15 -34 10 -44 -45 -5 -29 -12 -38 -26 -38 -11 0 -20 6 -20 13 0 23 37
185 46 198 4 8 8 25 8 39 1 18 6 25 21 25 11 -1 19 -6 18 -13 -2 -8 7 -10 27
-5 39 7 60 -11 60 -53 0 -42 -14 -78 -41 -105 -12 -12 -16 -20 -8 -17 26 9 52
58 57 107 5 59 -7 81 -47 81 -15 0 -32 5 -38 11 -6 6 -21 9 -34 7 -18 -2 -25
-11 -29 -33 -7 -38 -40 -46 -55 -13 -5 13 -19 24 -30 25 -14 1 -15 0 -3 -3 30
-9 39 -59 19 -107 -22 -51 -42 -69 -76 -69 -41 -1 -56 19 -50 66 5 46 30 85
66 103 13 7 18 13 11 13 -38 0 -53 -18 -110 -144 -3 -5 2 -6 9 -2 8 4 1 -4
-14 -18 -15 -14 -32 -26 -37 -26 -15 0 -41 32 -36 45 2 7 7 33 11 58 6 38 4
47 -12 55 -16 10 -17 11 -1 17 9 4 25 5 35 3 19 -4 23 -42 12 -113 -3 -23 0
-30 16 -33 15 -2 16 -1 7 6 -10 7 -12 23 -7 66 8 65 -3 86 -45 86 -27 0 -28 2
-20 35 9 39 6 42 -31 37z"/>
<path d="M2120 556 c-27 -33 18 -72 48 -42 13 13 14 20 6 34 -15 23 -38 26
-54 8z m46 -7 c10 -17 -23 -46 -37 -32 -7 7 -9 19 -6 27 7 18 33 21 43 5z"/>
<path d="M1915 498 c-7 -21 -64 -292 -61 -295 1 -1 15 1 31 6 23 6 32 16 41
47 9 33 15 39 35 36 l24 -3 -25 14 c-29 15 -34 10 -44 -45 -5 -29 -12 -38 -26
-38 -26 0 -25 9 8 155 24 105 30 120 47 120 11 -1 19 -6 18 -13 -2 -8 7 -10
27 -5 39 7 60 -11 60 -53 0 -42 -14 -78 -41 -105 -12 -12 -16 -20 -8 -17 26 9
52 58 57 107 5 60 -7 81 -49 81 -15 0 -31 5 -34 10 -9 14 -55 12 -60 -2z"/>
<path d="M330 486 c0 -3 -7 -36 -15 -75 -16 -76 -13 -96 17 -112 14 -8 25 -7
42 4 19 13 25 13 41 1 26 -19 39 -18 66 6 l24 21 -34 -17 c-34 -16 -35 -16
-53 6 -11 13 -17 28 -15 34 3 6 10 37 17 69 11 46 17 57 33 57 21 0 21 7 0
-114 -6 -38 -5 -39 20 -32 19 4 29 1 39 -12 21 -31 55 -44 78 -32 11 6 20 15
20 20 0 13 -7 13 -31 0 -56 -31 -82 63 -36 131 18 26 30 35 57 36 31 2 32 1
12 -7 -41 -17 -70 -124 -37 -136 31 -12 52 30 60 121 1 14 10 21 28 23 l26 3
-15 -61 c-7 -33 -16 -75 -18 -93 -7 -52 -27 -97 -47 -108 -37 -19 -78 10 -58
42 7 11 9 9 9 -8 0 -25 10 -29 28 -11 15 15 16 38 1 38 -5 0 -8 -4 -5 -8 2 -4
0 -14 -6 -22 -8 -13 -9 -12 -5 2 8 23 -21 31 -32 9 -12 -22 12 -61 38 -61 26
0 71 38 71 60 0 22 43 66 48 50 5 -14 19 -13 19 3 0 13 21 122 29 150 6 19 44
24 44 5 -1 -7 -9 -48 -19 -90 -10 -43 -15 -78 -11 -78 4 0 13 32 20 70 13 71
26 93 40 70 13 -21 45 -7 45 20 0 24 -3 25 -62 27 l-62 3 -12 -55 c-7 -31 -18
-60 -26 -66 -17 -14 -17 -33 0 -23 6 4 8 3 4 -1 -12 -14 -37 -15 -37 -2 0 7 7
39 15 72 8 33 14 63 15 68 0 4 -28 7 -63 7 -56 0 -66 -3 -89 -27 -14 -16 -31
-45 -37 -65 -12 -37 -37 -66 -47 -55 -5 5 12 105 23 134 4 9 -6 13 -30 13 -32
0 -35 -3 -41 -37 -13 -72 -27 -113 -38 -113 -7 0 -8 13 -4 38 3 20 9 54 12 75
6 36 6 37 -25 37 -17 0 -31 -2 -31 -4z m46 -38 c-4 -18 -10 -53 -13 -77 -6
-42 -5 -44 15 -39 28 8 28 2 -2 -17 -25 -17 -51 -12 -60 11 -3 9 1 47 10 85
13 58 19 69 36 69 18 0 20 -4 14 -32z m480 21 c12 -21 -13 -32 -36 -16 -15 11
-18 16 -8 20 22 9 36 8 44 -4z m-232 -36 c-14 -63 -27 -94 -37 -90 -17 6 -10
77 9 99 24 26 35 22 28 -9z"/>
<path d="M2100 486 c0 -3 -7 -37 -15 -76 -16 -77 -11 -104 25 -115 19 -6 66
12 57 22 -3 2 -14 0 -25 -6 -24 -13 -48 -6 -56 15 -3 9 1 47 10 85 13 58 19
69 36 69 18 0 20 -4 14 -32 -18 -87 -19 -118 -4 -118 8 0 20 6 27 13 10 10 12
9 11 -3 -8 -55 6 -31 25 45 16 67 26 91 40 93 21 5 38 -18 25 -33 -10 -12 -40
-138 -34 -144 5 -5 9 9 26 83 15 69 45 95 34 30 -3 -22 -9 -49 -12 -61 -8 -30
29 -66 59 -57 12 3 30 13 40 22 10 9 17 11 17 4 0 -15 51 -39 72 -35 9 2 19
11 22 19 7 17 4 17 -28 2 -36 -16 -67 12 -62 56 2 17 4 36 5 43 2 25 53 73 77
73 l25 0 -26 -23 c-34 -29 -48 -113 -21 -123 26 -10 38 9 51 78 9 53 14 64 33
66 12 2 22 -1 22 -7 0 -21 -40 -196 -51 -224 -19 -46 -89 -45 -89 1 0 13 2 13
13 -3 16 -21 32 -15 40 15 3 13 0 20 -9 20 -7 0 -11 -6 -8 -14 3 -8 0 -17 -6
-21 -7 -4 -10 -1 -8 10 4 25 -19 30 -26 7 -9 -28 3 -51 30 -58 32 -8 72 19 80
53 4 15 22 42 41 59 32 31 43 54 23 54 -13 0 -31 -36 -22 -44 3 -4 -1 -4 -9
-1 -15 5 -15 13 -3 68 21 99 22 97 -42 97 -85 0 -87 -2 -152 -144 -3 -5 2 -6
9 -2 8 4 1 -4 -14 -18 -15 -14 -32 -26 -37 -26 -15 0 -41 32 -36 45 2 7 7 33
11 58 6 38 4 47 -12 55 -16 10 -17 11 -1 17 9 4 25 5 35 3 19 -4 23 -42 12
-113 -3 -23 0 -30 16 -33 15 -2 16 -1 7 6 -10 7 -12 23 -7 66 10 75 0 86 -76
86 l-58 0 -10 -37 c-6 -21 -11 -45 -11 -54 0 -18 -47 -65 -56 -56 -4 4 -2 32
5 63 16 81 15 84 -19 84 -16 0 -30 -2 -30 -4z m405 -73 c-7 -48 -20 -73 -36
-73 -14 0 -10 59 6 90 24 46 38 38 30 -17z"/>
<path d="M1586 436 c-9 -19 -16 -50 -16 -70 0 -30 4 -36 21 -36 24 0 46 48 45
100 -1 48 -28 52 -50 6z m39 -22 c-5 -67 -45 -106 -45 -44 0 33 25 90 39 90 5
0 7 -20 6 -46z"/>
<path d="M1782 461 c-18 -11 -42 -117 -29 -130 24 -24 67 36 67 94 0 27 -21
47 -38 36z m28 -39 c0 -33 -20 -74 -39 -80 -11 -4 -12 5 -6 44 7 51 21 78 36
68 5 -3 9 -17 9 -32z"/>
<path d="M1972 461 c-18 -11 -42 -117 -29 -130 24 -24 67 36 67 94 0 27 -21
47 -38 36z m28 -39 c0 -33 -20 -74 -39 -80 -11 -4 -12 5 -6 44 7 51 21 78 36
68 5 -3 9 -17 9 -32z"/>
</g>
</svg>
